<?xml version="1.0" standalone="no"?>
<!DOCTYPE svg PUBLIC "-//W3C//DTD SVG 20010904//EN"
 "http://www.w3.org/TR/2001/REC-SVG-20010904/DTD/svg10.dtd">
<svg version="1.0" xmlns="http://www.w3.org/2000/svg"
 width="1600.000000pt" height="1600.000000pt" viewBox="0 0 1600.000000 1600.000000"
 preserveAspectRatio="xMidYMid meet">
<metadata>
Created by potrace 1.14, written by Peter Selinger 2001-2017
</metadata>
<g transform="translate(0.000000,1600.000000) scale(0.100000,-0.100000)"
fill="#000000" stroke="none">
<path d="M0 7995 l0 -7995 1005 0 1005 0 0 7995 0 7995 -1005 0 -1005 0 0
-7995z"/>
<path d="M13990 7995 l0 -7995 1005 0 1005 0 0 7995 0 7995 -1005 0 -1005 0 0
-7995z"/>
<path d="M2640 12175 l0 -45 5360 0 5360 0 0 45 0 45 -5360 0 -5360 0 0 -45z"/>
<path d="M3558 11540 c-251 -45 -489 -194 -634 -396 -58 -82 -130 -233 -154
-327 -68 -270 -38 -582 80 -818 113 -223 300 -377 556 -456 83 -25 101 -27
279 -27 172 -1 197 1 265 22 99 31 177 72 244 126 l55 45 7 -89 7 -90 148 0
149 0 0 570 0 570 -435 0 -435 0 0 -150 0 -150 265 0 265 0 0 -154 0 -154 -61
-55 c-67 -61 -172 -118 -264 -142 -80 -21 -250 -21 -345 0 -121 27 -214 77
-295 159 -130 131 -177 260 -178 491 0 100 4 160 17 210 53 218 202 378 426
457 82 30 268 36 362 13 106 -25 212 -80 283 -146 l31 -29 119 121 120 120
-45 40 c-113 99 -263 180 -405 219 -62 17 -114 23 -230 26 -82 1 -171 -1 -197
-6z"/>
<path d="M12509 11535 c-130 -33 -269 -117 -340 -208 -89 -112 -129 -230 -129
-382 0 -168 45 -282 154 -390 116 -115 234 -167 425 -185 191 -18 292 -90 322
-229 33 -156 -91 -292 -268 -292 -88 0 -136 12 -195 51 -51 34 -98 112 -98
162 l0 28 -170 0 -170 0 0 -42 c0 -24 7 -72 15 -107 62 -259 307 -431 615
-431 188 0 328 56 451 179 116 116 159 226 159 401 -1 347 -211 567 -576 601
-65 6 -140 19 -169 30 -98 36 -154 118 -155 223 0 86 18 134 70 187 56 56 118
79 216 79 149 0 253 -72 270 -187 l6 -43 170 0 170 0 -7 53 c-30 238 -167 405
-402 489 -76 27 -281 34 -364 13z"/>
<path d="M4982 10788 c4 -806 2 -777 67 -906 88 -175 261 -303 475 -352 84
-20 115 -22 244 -17 171 6 251 25 377 90 104 54 217 164 262 257 70 143 67
107 71 923 l3 737 -171 0 -170 0 0 -693 c0 -753 0 -747 -55 -827 -35 -51 -114
-104 -193 -130 -73 -24 -222 -29 -294 -10 -117 32 -214 109 -251 200 -22 55
-22 56 -25 758 l-3 702 -170 0 -170 0 3 -732z"/>
<path d="M6700 11516 c0 -3 166 -238 370 -523 l369 -518 1 -472 0 -473 170 0
170 0 0 473 0 473 370 520 371 519 -198 3 c-109 1 -203 0 -209 -2 -6 -2 -120
-158 -253 -345 -134 -188 -246 -341 -251 -341 -4 0 -119 155 -254 345 l-247
345 -204 0 c-113 0 -205 -2 -205 -4z"/>
<path d="M8750 10525 l0 -995 663 2 662 3 3 168 2 167 -500 0 -500 0 0 245 0
245 415 0 415 0 0 170 0 170 -415 0 -415 0 2 243 3 242 498 3 497 2 0 165 0
165 -665 0 -665 0 0 -995z"/>
<path d="M10410 10525 l0 -995 168 2 167 3 3 413 2 413 132 -3 131 -3 188
-410 188 -410 186 -3 c102 -1 185 1 185 4 0 4 -90 203 -200 442 -111 239 -200
435 -198 436 2 1 21 10 43 20 232 105 350 302 332 556 -15 208 -113 352 -301
444 -161 79 -159 79 -618 83 l-408 4 0 -996z m705 656 c94 -14 139 -29 192
-64 116 -77 128 -236 24 -330 -80 -71 -121 -80 -368 -85 l-213 -3 0 245 0 246
153 0 c83 0 179 -4 212 -9z"/>
<path d="M2640 8885 l0 -45 5360 0 5360 0 0 45 0 45 -5360 0 -5360 0 0 -45z"/>
<path d="M7873 8376 c-148 -48 -242 -199 -231 -369 10 -142 77 -250 186 -304
51 -25 67 -28 162 -28 95 0 110 3 157 27 102 54 162 140 184 262 28 162 -47
322 -184 393 -43 22 -68 27 -142 30 -57 2 -105 -2 -132 -11z m236 -139 c22
-15 53 -48 68 -74 25 -43 28 -58 28 -133 0 -92 -18 -142 -67 -187 -84 -79
-241 -68 -315 21 -59 72 -71 192 -29 281 44 93 103 128 208 122 52 -3 77 -10
107 -30z"/>
<path d="M7090 8030 l0 -350 60 0 60 0 0 145 0 145 145 0 145 0 0 60 0 60
-145 0 -145 0 0 85 0 85 175 0 175 0 0 60 0 60 -235 0 -235 0 0 -350z"/>
<path d="M8460 8030 l0 -350 65 0 65 0 0 145 0 145 43 0 43 0 65 -142 65 -143
67 -3 c37 -2 67 0 67 4 0 5 -30 73 -67 153 -64 137 -66 145 -48 155 42 24 93
83 104 121 29 105 -13 195 -114 241 -46 22 -64 24 -202 24 l-153 0 0 -350z
m317 204 c22 -17 28 -29 28 -59 0 -57 -35 -79 -136 -84 l-79 -3 0 87 0 87 79
-3 c62 -3 86 -9 108 -25z"/>
<path d="M2640 7105 l0 -45 5360 0 5360 0 0 45 0 45 -5360 0 -5360 0 0 -45z"/>
<path d="M5967 6443 c-10 -16 -527 -1355 -527 -1364 0 -6 50 -8 122 -7 l122 3
27 70 26 70 235 3 235 2 28 -75 27 -75 124 0 c68 0 124 2 124 4 0 7 -531 1370
-535 1374 -1 2 -5 -1 -8 -5z m163 -1020 c0 -2 -70 -3 -155 -3 -85 0 -155 4
-155 9 0 7 90 269 141 410 12 33 13 30 90 -190 43 -123 79 -225 79 -226z"/>
<path d="M10770 6425 c-6 -16 -126 -325 -266 -686 -140 -361 -254 -659 -254
-663 0 -3 55 -6 123 -6 l122 0 28 75 28 75 234 0 234 0 28 -75 28 -75 123 0
c114 0 124 2 119 18 -7 27 -516 1333 -526 1351 -8 13 -11 11 -21 -14z m94
-778 c42 -120 76 -220 76 -223 0 -2 -70 -4 -155 -4 -85 0 -155 2 -155 5 0 11
153 446 155 443 2 -2 37 -101 79 -221z"/>
<path d="M12807 6438 c-35 -89 -527 -1361 -527 -1364 0 -2 56 -4 124 -4 l123
0 28 75 27 75 235 -2 235 -3 27 -70 26 -70 123 -3 c73 -1 122 1 122 7 0 13
-521 1354 -530 1364 -4 5 -10 2 -13 -5z m88 -788 c41 -118 75 -218 75 -222 0
-4 -70 -8 -156 -8 -121 0 -155 3 -152 13 3 6 38 107 78 224 41 117 75 211 77
210 1 -2 36 -99 78 -217z"/>
<path d="M3360 6433 c-163 -20 -291 -83 -405 -197 -139 -140 -197 -286 -197
-496 0 -224 57 -377 191 -511 132 -132 280 -185 486 -176 129 6 199 27 285 86
l58 40 6 -60 7 -59 99 0 100 0 0 390 0 390 -225 0 -225 0 0 -110 0 -110 110 0
110 0 0 -99 0 -100 -42 -34 c-146 -119 -337 -139 -514 -56 -142 67 -214 205
-214 410 0 203 83 344 249 423 63 29 72 31 186 31 106 0 126 -3 174 -25 30
-13 74 -39 98 -57 24 -18 46 -33 50 -33 13 0 153 144 153 156 0 18 -116 103
-185 135 -101 48 -255 75 -355 62z"/>
<path d="M4282 5898 l3 -523 29 -60 c37 -76 133 -172 208 -208 158 -76 386
-75 539 4 63 32 152 121 181 181 45 93 48 130 48 643 l0 485 -115 0 -115 0 0
-471 c0 -330 -4 -483 -12 -510 -14 -50 -69 -106 -127 -132 -69 -32 -207 -30
-279 2 -61 28 -107 75 -121 128 -7 24 -11 212 -11 511 l0 472 -115 0 -116 0 3
-522z"/>
<path d="M6544 6407 c-2 -7 -3 -56 -2 -108 l3 -94 138 -3 137 -3 0 -565 0
-565 118 3 117 3 3 562 2 562 138 3 137 3 0 105 0 105 -393 3 c-320 2 -393 0
-398 -11z"/>
<path d="M7517 6413 c-4 -3 -7 -307 -7 -675 l0 -668 455 0 455 0 0 115 0 115
-335 0 -335 0 0 165 0 165 275 0 275 0 0 115 0 115 -275 0 -275 0 0 160 0 160
333 2 332 3 0 115 0 115 -446 3 c-245 1 -449 -1 -452 -5z"/>
<path d="M8640 5745 l0 -675 115 0 115 0 2 410 3 411 199 -411 200 -410 110 0
111 1 185 398 185 397 3 -398 2 -398 115 0 115 0 0 675 0 676 -117 -3 -117 -3
-240 -512 c-131 -282 -242 -513 -245 -513 -3 0 -118 232 -256 515 l-250 515
-117 0 -118 0 0 -675z"/>
<path d="M11470 5745 l0 -675 365 0 365 0 0 115 0 115 -250 0 -250 0 0 560 0
560 -115 0 -115 0 0 -675z"/>
<path d="M2640 4355 l0 -45 5360 0 5360 0 0 45 0 45 -5360 0 -5360 0 0 -45z"/>
</g>
</svg>
