<svg  xmlns="http://www.w3.org/2000/svg" xmlns:svg="http://www.w3.org/2000/svg" version="1.1" viewBox="0 -622 640 638.99999"   width="640" height="639" >
  <g  transform="translate(-51,-497)">
    <path d="m 589,514 30,-55 c 3,-8 5,-14 5,-20 0,-2 -1,-4 -1,-6 l -14,-92 32,-38 c 6,-7 11,-13 15,-19 2,-2 2,-4 2,-6 0,-2 0,-4 -2,-6 l -6,-6 c -2,-2 -4,-3 -7,-3 -2,0 -14,8 -19,12 l -23,17 -10,-76 32,-39 c 6,-7 11,-13 14,-18 1,-2 2,-4 2,-5 0,-2 -1,-4 -3,-6 l -6,-6 c -2,-2 -4,-3 -6,-3 -1,0 -2,0 -3,0 -3,2 -9,6 -17,12 L 582,168 566,67 c 51,-50 125,-148 125,-181 0,-7 -4,-11 -11,-11 -32,0 -129,72 -182,124 L 398,-16 c 13,-19 20,-31 21,-34 1,-4 0,-6 -3,-10 l -5,-6 c -2,-2 -4,-3 -7,-3 -2,0 -4,1 -6,2 -5,4 -11,9 -18,15 l -30,27 -77,-11 c 14,-21 21,-33 21,-36 0,-2 -2,-3 -4,-6 l -5,-6 c -2,-2 -4,-3 -7,-3 -1,0 -3,0 -5,1 -5,3 -11,8 -18,14 l -29,27 c -67,-9 -102,-13 -105,-13 -2,0 -7,1 -15,5 l -55,30 26,2 253,112 41,33 C 353,142 252,269 226,306 l -122,-23 -41,30 113,57 c -12,16 -18,27 -18,33 0,3 2,4 5,4 6,0 17,-6 33,-18 l 56,114 30,-42 -22,-121 C 290,318 422,214 442,195 l 33,40 111,254 c 0,0 3,25 3,25 z" />
  </g>
</svg>
